PathFileType	4	(X/Y/Z)	C:\Users\Basilio\Documents\Thesis Gigler\squatting_fais\c3dfiles\058\SJ_pre5\markers_experimental.trc
DataRate	CameraRate	NumFrames	NumMarkers	Units	OrigDataRate	OrigDataStartFrame	OrigNumFrames
200.000000	200.000000	4	61	mm	200.000000	771	1235
Frame#	Time	FHD			LBHD			RBHD			C7			T10			CLAV			LSHO			LUUPA			LMUPA			LDUPA			LLEP			LMEP			LRAD			LUL			LRFIN			RSHO			RUPA1			RMUPA			RDUPA			RLEP			RMEP			RRAD			RUL			RUFIN			LASI			RASI			USACR			LSACR			RSACR			LTHI1			LTHI2			LTHI3			LTHI4			LLFC			LMFC			LTIB1			LTIB2			LTIB3			LTIB4			LLMAL			LMMAL			LHEE			LMT1			LMT2			LMT5			RTHI			RTHI2			RTHI3			RTHI4			RLFC			RMFC			RTIB1			RTIB2			RTIB3			RTIB4			RLMAL			RMMAL			RHEE			RMT1			RMT2			RMT5			
		X1	Y1	Z1	X2	Y2	Z2	X3	Y3	Z3	X4	Y4	Z4	X5	Y5	Z5	X6	Y6	Z6	X7	Y7	Z7	X8	Y8	Z8	X9	Y9	Z9	X10	Y10	Z10	X11	Y11	Z11	X12	Y12	Z12	X13	Y13	Z13	X14	Y14	Z14	X15	Y15	Z15	X16	Y16	Z16	X17	Y17	Z17	X18	Y18	Z18	X19	Y19	Z19	X20	Y20	Z20	X21	Y21	Z21	X22	Y22	Z22	X23	Y23	Z23	X24	Y24	Z24	X25	Y25	Z25	X26	Y26	Z26	X27	Y27	Z27	X28	Y28	Z28	X29	Y29	Z29	X30	Y30	Z30	X31	Y31	Z31	X32	Y32	Z32	X33	Y33	Z33	X34	Y34	Z34	X35	Y35	Z35	X36	Y36	Z36	X37	Y37	Z37	X38	Y38	Z38	X39	Y39	Z39	X40	Y40	Z40	X41	Y41	Z41	X42	Y42	Z42	X43	Y43	Z43	X44	Y44	Z44	X45	Y45	Z45	X46	Y46	Z46	X47	Y47	Z47	X48	Y48	Z48	X49	Y49	Z49	X50	Y50	Z50	X51	Y51	Z51	X52	Y52	Z52	X53	Y53	Z53	X54	Y54	Z54	X55	Y55	Z55	X56	Y56	Z56	X57	Y57	Z57	X58	Y58	Z58	X59	Y59	Z59	X60	Y60	Z60	X61	Y61	Z61	

772	3.855	-54.77319335937501	2089.277099609375	-804.6940917968752	-213.5367126464844	2079.694580078125	-890.4370117187502	-33.91772460937501	2109.115234375	-946.001403808594	-270.2093811035157	1947.55224609375	-913.563659667969	-317.4982910156251	1630.007446289063	-903.8218383789065	-107.5745239257813	1884.554809570313	-901.512390136719	-132.718246459961	1958.61474609375	-1057.730102539063	-278.5632629394532	1858.140869140625	-1212.147705078125	-253.165267944336	1815.12451171875	-1219.72900390625	-308.7656860351563	1801.803833007813	-1242.391357421875	-351.1812438964844	1732.254028320313	-1270.263061523438	-403.9099731445314	1731.522705078125	-1213.464965820313	-312.8608703613282	1516.936889648438	-1098.7177734375	-291.5351562500001	1471.749145507813	-1163.298461914063	-237.2451934814454	1527.095947265625	-1094.866821289063	-159.2867126464844	1969.426391601563	-750.7392578125001	-283.3735961914063	1846.4638671875	-590.6834716796876	-255.2883605957032	1804.499877929688	-595.2116699218751	-299.4452209472657	1784.48828125	-559.4479980468751	-334.7958374023438	1729.232543945313	-530.6813964843751	-397.958709716797	1711.58984375	-592.4940185546876	-269.2460021972657	1519.419189453125	-686.6828613281251	-245.9716186523438	1477.755493164063	-621.3350830078126	-196.7819061279297	1498.06689453125	-713.1416625976564	-167.0552215576172	1396.861694335938	-1026.783203125	-164.66064453125	1406.96484375	-784.5126953125002	-339.0131530761719	1503.4609375	-893.2926025390627	-349.4303283691407	1472.383666992188	-920.8516845703127	-348.1937866210938	1472.252685546875	-863.5725708007815	-291.9345703125001	1125.601196289063	-1113.402099609375	-276.0785522460938	1042.261962890625	-1120.974975585938	-228.9652862548829	1034.437744140625	-1114.042724609375	-313.1198730468751	995.4089965820315	-1105.20556640625	-322.9380493164063	895.1426391601565	-1103.157958984375	-260.9275817871094	870.1762695312502	-994.8972778320315	-270.6075744628907	755.4865722656251	-1102.844360351563	-340.9967956542969	726.8074951171876	-1139.59228515625	-298.2329711914063	716.1529541015626	-1134.514892578125	-292.1464843750001	631.2474975585939	-1123.69921875	-381.1821899414063	441.5573120117189	-1126.544677734375	-316.0396118164063	433.6408996582032	-1062.41943359375	-414.9704895019532	416.019744873047	-1053.8603515625	-229.1732635498047	338.0178527832032	-1149.738159179688	-246.0293426513672	345.9962463378907	-1193.519165039063	-316.4212951660157	345.5524597167969	-1215.691650390625	-303.0926208496094	1212.553955078125	-701.4317626953126	-273.8700561523438	1153.150390625	-689.5822143554689	-241.1432037353516	1149.518798828125	-689.9291381835939	-311.8183288574219	1078.478149414063	-701.9037475585939	-326.9657897949219	900.1346435546877	-697.9298095703126	-273.4764404296876	866.2791137695315	-820.1235961914065	-284.2569885253907	678.1236572265626	-740.6127319335939	-336.8989257812501	616.6295776367189	-669.6689453125001	-298.6934204101563	602.6743774414064	-695.0236816406251	-306.5119628906251	552.8197021484376	-721.1093139648439	-382.6269836425782	448.6841125488282	-675.9642333984376	-336.9645996093751	454.2546691894532	-757.7655029296876	-443.530487060547	445.8648681640626	-742.5202636718751	-266.6929626464844	323.3359375000001	-736.4047851562501	-265.6094665527344	319.4403686523438	-683.6112670898439	-327.5879211425782	306.4431457519532	-643.1766967773439	
773	3.86	-55.48450851440431	2092.62890625	-805.223327636719	-214.4988708496094	2083.092529296875	-890.606628417969	-35.22840881347657	2112.14306640625	-946.4475708007815	-271.3015747070313	1950.374389648438	-913.3743286132815	-317.4855651855469	1632.505004882813	-903.628112792969	-108.3008041381836	1887.807861328125	-901.582214355469	-134.6020812988282	1962.473388671875	-1057.598876953125	-280.9754638671876	1861.77880859375	-1211.903198242188	-255.3328552246094	1818.886962890625	-1219.817993164063	-311.1282958984376	1805.227416992188	-1242.322998046875	-352.5209045410157	1735.54443359375	-1269.984252929688	-405.4859619140626	1734.838745117188	-1213.2841796875	-312.8565979003907	1520.4130859375	-1098.98583984375	-291.3469238281251	1475.662719726563	-1163.859252929688	-236.432846069336	1531.040771484375	-1095.618896484375	-160.5573272705078	1972.159790039063	-750.4924316406251	-283.2294616699219	1849.658081054688	-589.9035644531251	-255.267807006836	1807.650756835938	-594.8306274414064	-299.4364318847657	1787.756225585938	-558.7615356445314	-334.8464660644532	1732.073974609375	-529.9742431640626	-398.3653259277345	1714.50732421875	-591.5810546875001	-268.7511901855469	1522.480590820313	-686.3751831054689	-245.5939025878907	1480.708740234375	-620.9209594726564	-196.1117095947266	1501.381103515625	-712.9147949218751	-166.6472778320313	1400.5048828125	-1027.1083984375	-163.9990997314453	1410.172241210938	-784.9996337890627	-338.3132934570313	1506.292358398438	-893.2742919921877	-349.1285400390626	1475.072021484375	-920.8154296875002	-347.5620422363282	1475.123046875	-863.466735839844	-290.7762756347657	1128.234130859375	-1113.9365234375	-275.3315734863282	1044.880249023438	-1121.14990234375	-228.2569580078126	1036.841430664063	-1113.252197265625	-312.5412597656251	998.1447753906252	-1105.468139648438	-323.5690917968751	897.941345214844	-1102.934326171875	-261.1627807617188	873.063659667969	-994.9674072265627	-271.6694641113282	758.1429443359376	-1103.16650390625	-342.2223815917969	729.3504028320314	-1139.23974609375	-299.2452392578126	719.1047363281251	-1134.560180664063	-292.4377441406251	634.1382446289064	-1123.917114257813	-381.1381835937501	444.0984191894532	-1126.035278320313	-314.5611267089844	436.6765136718751	-1062.351806640625	-413.5936279296876	417.7335815429689	-1052.886962890625	-227.9235076904297	342.7218627929688	-1151.88134765625	-246.3710327148438	350.8649291992188	-1195.260375976563	-316.6151733398438	350.1062316894532	-1216.6494140625	-301.9013977050782	1215.166625976563	-701.0911865234376	-272.6609802246094	1155.737182617188	-689.7969360351564	-239.7966308593751	1152.065795898438	-691.0635375976564	-311.3746337890626	1081.398681640625	-701.8152465820314	-328.6792297363282	902.8150634765627	-698.6887817382814	-276.4078979492188	868.6023559570315	-821.0650024414065	-285.9223327636719	681.1209716796876	-740.6652832031251	-338.0636291503907	619.2734375000001	-669.8281860351564	-299.4928894042969	605.3363037109376	-694.8967895507814	-307.3232421875001	555.6602783203126	-721.0943603515626	-382.4762268066407	451.040496826172	-675.8749389648439	-336.7601928710938	456.8484802246095	-757.6307373046876	-443.387420654297	446.0506896972657	-742.7755126953126	-263.5883483886719	328.2268371582032	-734.0002441406251	-262.4770507812501	324.6769409179688	-681.4044189453126	-324.6585388183594	310.4772338867188	-640.7023925781251	
774	3.865	-56.94221496582033	2095.739990234375	-805.5935668945315	-215.7882995605469	2085.6640625	-890.497253417969	-36.4882926940918	2115.148193359375	-946.7386474609377	-272.5821228027344	1952.786010742188	-912.8568115234377	-317.3775329589844	1634.758422851563	-903.3869628906252	-109.3393096923828	1890.779174804688	-901.5516357421877	-136.3692321777344	1966.072631835938	-1057.490966796875	-283.7470092773438	1865.030883789063	-1211.684204101563	-257.6811828613282	1822.46484375	-1219.923828125	-313.3656311035157	1808.244262695313	-1242.234985351563	-354.3105468750001	1738.872680664063	-1269.956176757813	-406.9755859375001	1737.92626953125	-1212.941162109375	-312.8244628906251	1524.175415039063	-1099.483276367188	-291.1152648925782	1479.347290039063	-1164.448608398438	-236.5419616699219	1534.693725585938	-1095.935180664063	-161.4540100097657	1974.646240234375	-750.4358520507814	-283.5299682617188	1852.7900390625	-589.4555053710939	-255.5778808593751	1810.831176757813	-594.0731201171876	-299.6304016113282	1790.755126953125	-558.2054443359376	-335.0939025878907	1734.522827148438	-529.4608154296876	-398.663543701172	1716.974975585938	-590.8317871093751	-268.0809020996094	1525.2138671875	-686.1078491210939	-245.1856384277344	1483.58056640625	-620.8049926757814	-195.3884582519532	1504.5283203125	-712.8212890625001	-166.3712921142578	1404.109741210938	-1027.322875976563	-163.4639282226563	1413.375610351563	-785.4202880859377	-337.9912109375001	1508.96142578125	-893.2363281250002	-348.7832031250001	1477.743408203125	-920.7174072265627	-347.0266113281251	1477.680908203125	-863.538513183594	-289.6499328613282	1130.65478515625	-1114.533081054688	-274.5955810546876	1047.144409179688	-1121.273559570313	-227.4855499267579	1039.195556640625	-1112.57470703125	-312.0920104980469	1000.614074707031	-1105.842651367188	-323.8200378417969	900.2899169921877	-1102.697143554688	-261.0173645019532	875.8404541015627	-994.9769287109377	-272.0189819335938	760.9841308593751	-1103.733154296875	-343.1044006347657	731.9054565429689	-1138.813842773438	-300.4638671875001	721.2272338867189	-1135.005859375	-292.5773315429688	636.7694091796876	-1124.024536132813	-380.6971435546876	446.4615783691407	-1125.526123046875	-313.2129211425782	439.0436401367189	-1062.375854492188	-412.1513671875001	419.1669921875001	-1052.042846679688	-227.6702270507813	346.0322875976563	-1153.744384765625	-245.6137084960938	354.8369140625001	-1197.0859375	-316.6042175292969	354.1968994140626	-1217.64501953125	-300.4319458007813	1217.71826171875	-701.2227172851564	-271.2863159179688	1158.288452148438	-690.1125488281251	-238.7098083496094	1154.077514648438	-692.0768432617189	-310.7346801757813	1083.95068359375	-701.9689331054689	-330.2416381835938	905.2844238281252	-699.1139526367189	-278.8909301757813	870.8770751953127	-821.986755371094	-286.5660095214844	683.3610229492189	-740.6853027343751	-339.4741821289063	621.5621337890626	-669.9176635742189	-300.6764526367188	607.7348022460939	-694.5942382812501	-308.1093444824219	557.8873291015626	-720.9165649414064	-382.3840637207032	453.0641174316407	-675.8107299804689	-336.3118286132813	459.0997924804689	-757.4104003906251	-442.8496398925782	446.0023498535157	-743.1464233398439	-260.3191528320313	332.6169128417969	-731.6732788085939	-259.5902404785157	329.6621398925782	-678.9992065429689	-321.9463500976563	314.5775756835938	-638.6831054687501	
775	3.87	-57.67623519897462	2098.70654296875	-805.9797973632815	-217.165512084961	2088.371826171875	-890.409118652344	-38.12831497192384	2117.794677734375	-947.346130371094	-273.6924133300782	1955.140258789063	-912.3712158203127	-317.3401794433594	1637.283203125	-902.9448852539065	-110.2495346069336	1893.505493164063	-901.5503540039065	-137.9247436523438	1969.2666015625	-1057.325317382813	-286.3153686523438	1867.95654296875	-1211.091430664063	-260.1155395507813	1825.978637695313	-1220.051513671875	-315.9042053222657	1811.46044921875	-1242.445190429688	-356.2973327636719	1742.013671875	-1269.769897460938	-408.557098388672	1740.466186523438	-1212.505981445313	-312.5294189453126	1526.691650390625	-1099.76123046875	-290.7527770996094	1482.565307617188	-1164.846313476563	-234.1545562744141	1538.215942382813	-1097.89697265625	-162.6165008544922	1976.580688476563	-750.3006591796876	-284.0159606933594	1855.595581054688	-588.9013061523439	-256.1477050781251	1813.516479492188	-593.2642822265626	-299.8004455566407	1793.632690429688	-557.4818725585939	-334.9815979003907	1737.1005859375	-529.1898803710939	-399.0466613769532	1719.284301757813	-590.1791992187501	-267.3901977539063	1527.7998046875	-686.0223388671876	-244.4335937500001	1486.011352539063	-620.8664550781251	-194.7451171875001	1507.287109375	-712.7677001953126	-166.178207397461	1407.33935546875	-1027.6123046875	-162.4736328125	1415.928588867188	-786.217468261719	-337.5692138671876	1511.6162109375	-893.3293457031252	-348.4750976562501	1479.975463867188	-920.6709594726565	-346.5859375000001	1480.128173828125	-863.4163818359377	-288.7283630371094	1132.682495117188	-1115.080932617188	-273.7745971679688	1049.02587890625	-1121.559448242188	-227.0290527343751	1040.948608398438	-1111.984619140625	-311.4421081542969	1002.766357421875	-1106.24365234375	-324.4189147949219	902.426940917969	-1102.427001953125	-261.1661376953126	878.1783447265627	-995.110046386719	-272.6835021972657	763.4276733398439	-1104.099609375	-343.6761779785157	734.2011108398439	-1138.615600585938	-301.2196350097657	723.3977661132814	-1134.916381835938	-292.7279357910157	639.2973632812501	-1124.248291015625	-380.5725097656251	448.311981201172	-1124.88818359375	-312.0362854003907	441.2270507812501	-1062.188598632813	-410.7270507812501	420.4034118652345	-1051.127685546875	-226.6928405761719	349.7674560546876	-1155.494140625	-245.2044372558594	358.8877868652344	-1198.637329101563	-315.9092407226563	357.6191711425782	-1218.749633789063	-299.2980041503907	1219.91650390625	-701.0983886718751	-270.5819091796876	1159.998901367188	-690.5309448242189	-237.9746856689454	1155.98388671875	-692.9188842773439	-310.4285583496094	1086.5205078125	-701.9963378906251	-331.8728942871094	907.3970947265627	-699.5697021484376	-281.4188537597657	872.9205322265627	-822.708679199219	-287.8439025878907	685.9069824218751	-740.6413574218751	-340.4399719238282	623.8865356445314	-670.2122192382814	-301.4400939941407	610.1948242187501	-694.2835083007814	-308.4519042968751	560.1424560546876	-720.6185913085939	-382.4659423828126	454.8586425781251	-675.8398437500001	-335.7941589355469	461.0122680664064	-757.1831054687501	-442.4911499023439	445.8648376464845	-743.4902343750001	-257.7652282714844	337.4470214843751	-729.4674682617189	-255.1708984375001	335.8615112304688	-677.3326416015626	-319.3163452148438	318.4742431640626	-636.7774047851564	
